<svg id="Layer_1" data-name="Layer 1" xmlns="http://www.w3.org/2000/svg" viewBox="0 0 231.305 149.798">
  <defs>
    <style>
      .cls-1 {
        fill: #1f170c;
      }
    </style>
  </defs>
  <title>aab02f43-f839-43a7-bc29-8c9438a6a724</title>
  <g>
    <g>
      <path class="cls-1" d="M3.586,70.272c5.351,1.243,11.642-.411,17.037-.911,2.655-.247,5.242-.84,7.868-1.288,2.938-.5,4.561-.314,6.084-3.284a4.308,4.308,0,0,0-2.254-5.655c-1.785-.717-3.593-.347-5.408.02-2.64.534-5.236,1.158-7.9,1.572-2.71.419-5.409.908-8.091,1.482-2.558.549-5.374.885-7.733,2.042-2.212,1.081-2.251,5.4.4,6.021Z"/>
      <path class="cls-1" d="M112.086,60.078c2.674,1.8,6.5.964,9.557.629,3.852-.42,7.687-.949,11.532-1.427,3.525-.441,6.976-1.016,10.464-1.683,3.126-.6,6.743-.174,8.674-3.057,1.37-2.045.745-5.756-1.986-6.42-2.887-.7-5.673.061-8.508.674-3.475.753-6.944,1.414-10.45,2.02-3.487.6-6.95,1.3-10.41,2.026-3.375.714-7.211,1.048-9.56,3.7-.913,1.031-.345,2.845.688,3.539Z"/>
      <path class="cls-1" d="M2.6,83.142c1.244,1.051,2.783.891,4.286,1.045a38.771,38.771,0,0,0,5.185-.039c1.878-.054,3.593-.789,5.432-1.04,2.142-.289,3.707-.728,5.144-2.515a2.276,2.276,0,0,0-.731-3.558c-3.215-1.72-6.276-.087-9.523.5-3.084.56-6.815-.738-9.638.809-1.74.957-1.567,3.6-.154,4.795Z"/>
      <path class="cls-1" d="M10.976,66.67c-2.667,5.167-4.391,10.9-6.4,16.38C2.419,88.96-.586,96.059.1,102.5c.362,3.416,3.684,5.426,5.591,1.864,1.622-3.027,2.287-6.582,3.181-9.907.886-3.3,1.976-6.532,2.928-9.808.972-3.345,1.79-6.7,2.579-10.1.6-2.568,1.241-6.294-.761-8.389-.94-.982-2.028-.685-2.641.5Z"/>
      <path class="cls-1" d="M45.245,67.148c-2.351-2.892-6.3-.771-8.669,1.006a29.194,29.194,0,0,0-7.636,9.115c-3.485,6.29-6.2,18.137.385,23.365,5.72,4.545,13.028-1.692,15.974-6.6,3.472-5.779,7.862-18.54-.351-22.283-2.219-1.013-2.977,2.527-2.349,3.9,1.78,3.881-.991,9.73-3.178,13.065-.577.877-4.754,5.375-6.007,4.084-1.123-1.159-.345-3.546-.119-4.9a30.542,30.542,0,0,1,2.124-7.15,28.87,28.87,0,0,1,4.309-6.257,17.979,17.979,0,0,1,2.382-2.3c.878-.759,1.893-.888,2.827-1.531a2.534,2.534,0,0,0,.308-3.505Z"/>
      <path class="cls-1" d="M70.063,66.09c-1.129-.6-2.671-1.643-4.022-1.049a21.233,21.233,0,0,0-4.484,3.024,28.037,28.037,0,0,0-7.693,9.96C50.585,84.88,50.025,95.717,58,99.382c5.613,2.583,12.769-2.258,15.862-6.629,4.466-6.315,6.4-17.421.743-23.56-2.645-2.873-5.483.754-4.934,3.621.4,2.1,1.049,4.175.754,6.339a20.114,20.114,0,0,1-2.1,6.433,8.575,8.575,0,0,1-7.343,4.3c-.816.031-1.048.018-1.317-.758-.63-1.8.062-4.871.677-6.613A28.877,28.877,0,0,1,64.2,75.529c1.088-1.535,3.1-4.5,4.916-4.809,1.953-.326,2.936-3.577.943-4.63Z"/>
      <path class="cls-1" d="M86.868,62.16s-.14,3.461-.652,4.358c-.706,1.233-.9,3.17-1.289,4.544-.905,3.2-2.016,6.34-2.924,9.543-.825,2.91-1.549,5.844-2.6,8.682a27.838,27.838,0,0,0-1.758,8.955c.027,2.323,2.062,4.168,4.18,2.877,2.992-1.82,2.715-5.6,3.721-8.55a98.678,98.678,0,0,0,2.663-10.93c.791-3.615,1.636-7.226,2.159-10.893.4-2.843,1.584-5.661.292-8.447-.974-2.1-3.445-.785-3.353,1.211Z"/>
      <path class="cls-1" d="M83.372,65.961a31.6,31.6,0,0,1,13.087,2.458c3.428,1.569,3.753,4.843,3.455,8.142-.755,8.4-9.141,13.768-16.534,16.857-2.833,1.186-2.177,6.7,1.251,6.3,5.916-.685,10.857-3.907,14.762-8.071a23.487,23.487,0,0,0,6.855-16.159c.111-5.166-1.781-10.214-6.8-12.675a17.575,17.575,0,0,0-6.729-1.592c-3.494-.206-6.9-.517-10.048,1.212-1.477.811-1.306,3.6.7,3.527Z"/>
      <path class="cls-1" d="M127.116,57.643c-1.363,6.8-3.954,13.582-6.14,20.157-1.168,3.51-2.257,7.042-3.3,10.592-1.136,3.879-2.431,8.04-2.1,12.116.272,3.372,3.661,5.563,5.814,2.1,2.111-3.4,2.826-7.616,3.773-11.457.973-3.93,2.045-7.833,3.171-11.721,1.108-3.83,1.914-7.81,2.713-11.719.657-3.224,1.72-7.57-.029-10.592-1.028-1.78-3.454-1.729-3.906.528Z"/>
      <path class="cls-1" d="M142.235,62.564c-1.036,1.772-1.263,3.964-1.8,5.97-.677,2.51-1.18,5.1-1.817,7.628a160.116,160.116,0,0,0-3.562,16.354c-.417,2.973,2.508,6.945,4.917,3.663,3.372-4.6,3.817-11.181,4.88-16.76.985-5.175,2.83-11.156.939-16.311a1.984,1.984,0,0,0-3.554-.545Z"/>
      <path class="cls-1" d="M144.22,69.253c1.652.245,3.046-.461,4.68-.631a8.988,8.988,0,0,1,2.087.025c.932.118,1.026.069.8.65-.546,1.409-2.846,2.531-4.184,3.213-2.17,1.108-4.171,1.823-5.776,3.6-1.692,1.869.028,4.894,2.56,4.883,3.531-.015,7.5-2.666,9.978-4.768,2.6-2.212,4.228-5.329,3.594-8.511-1.376-6.891-11.952-6.97-15.034-.979a1.845,1.845,0,0,0,1.294,2.516Z"/>
      <path class="cls-1" d="M142.838,81.076c.647,2.787,3.188,5.133,4.535,7.7a28.971,28.971,0,0,0,5.926,7.275c4.236,4,10.672,8.735,17.065,7.165,5.883-1.446,4.881-7.158,2.55-6.643-2.883.633-7.441-.709-9.812-1.9a44.4,44.4,0,0,1-8.747-6.344c-3.248-3.028-5.142-9.2-9.936-9.82-1.383-.18-1.813,1.571-1.58,2.569Z"/>
      <path class="cls-1" d="M162.889,62.8c-1.2,2.263-1.531,5.414-2.03,7.951a36.2,36.2,0,0,0-.866,8.254c.174,5.017,3.351,13.171,9.115,11.863,5.172-1.175,8.427-7.338,10.442-12.121,2.373-5.632,4.09-12.532,3.383-18.721-.356-3.13-3.632-3.129-4.9-.82-3.671,6.7-2.966,16.006-8.968,21.325l-.657.524q-1.067.428-.149.436a5.9,5.9,0,0,1-1.107-1.756c-.682-1.525-.55-3.463-.573-5.1-.05-3.991.735-8.011-.57-11.849-.6-1.75-2.42-1.294-3.12.018Z"/>
      <path class="cls-1" d="M204.12,66.765c2.311-1.733,2.18-5.207.516-7.32C203.1,57.492,200.7,56.9,198.241,57c-6.71.284-10.9,7.306-12.743,12.7-1.873,5.494-3.123,12.521.94,17.395,2.434,2.919,6.549,3.136,9.817,1.535,4.006-1.963,6.487-5.417,8.19-9.273.9-2.029-1.037-6.331-3.754-4.2-1.1.865-7.1,6.669-8.7,5.256-.937-.833-.114-3.992.223-5.617a20.259,20.259,0,0,1,1.985-5.553,14.748,14.748,0,0,1,3.245-4.029,5.948,5.948,0,0,1,2.884-.483c.735.025.475.433.932,1.2a1.964,1.964,0,0,0,2.856.829Z"/>
      <path class="cls-1" d="M212.175,77.461c4.074-.242,7.037-4.932,9.748-7.5A48.916,48.916,0,0,0,226.449,65c1.659-2.065,3.7-3.6,4.636-6.17.826-2.277-.736-5.805-3.523-4.149-3.628,2.154-5.945,5.918-8.578,9.089-1.269,1.531-2.478,3.029-3.6,4.667-1.165,1.694-2.521,4.007-4.086,5.345-1.1.941-1.044,3.795.88,3.678Z"/>
      <path class="cls-1" d="M219.052,69.712c.919,5.8,3.11,12.064,6.987,16.581,2.006,2.337,4.958-.614,4.121-3.045-1.032-2.994-2.826-5.545-4.5-8.213-1.464-2.342-2.232-5.085-4.181-7.11-1.349-1.4-2.654.367-2.429,1.788Z"/>
      <path class="cls-1" d="M213.863,54.369c.92-.93-.019-.106-.325.113a3.439,3.439,0,0,0-.962,1.268,27.556,27.556,0,0,0-1.511,4.523c-.543,3.63-1.384,7.214-1.742,10.856-.273,2.786-.968,5.557-1.384,8.326-.343,2.294-1.089,5.315.119,7.486a1.881,1.881,0,0,0,3.161.43c1.669-1.592,2.287-4.512,2.938-6.623a43.729,43.729,0,0,0,1.365-8.713c.174-2.012.634-3.934.871-5.932.186-1.585.039-3.267.367-4.825.369-1.76,1.065-6.106-.98-7.244a1.442,1.442,0,0,0-1.916.336Z"/>
    </g>
    <g>
      <path class="cls-1" d="M64.689,45.745,54.165,38.757l-.855,1.288-2.2-1.461L55.151,32.5a5.9,5.9,0,0,1,3.054-2.516,3.869,3.869,0,0,1,3.469.563,4.057,4.057,0,0,1,1.533,1.731,3.873,3.873,0,0,1,.347,1.973l.04.027a3.423,3.423,0,0,1,2.36-.846,4.555,4.555,0,0,1,2.449.784,4.3,4.3,0,0,1,2.128,3.4,6.752,6.752,0,0,1-1.27,4.17l-2.331,3.506a1.7,1.7,0,0,1-.994.81A1.659,1.659,0,0,1,64.689,45.745Zm-5.252-7.229L60.912,36.3a1.919,1.919,0,0,0,.324-1.585,2.23,2.23,0,0,0-1-1.318,2.107,2.107,0,0,0-1.572-.388,2.053,2.053,0,0,0-1.331.973L55.89,36.16Zm5.688,3.777a.462.462,0,0,0,.726-.147l1.342-2.021a2.265,2.265,0,0,0,.4-1.831,2.5,2.5,0,0,0-1.128-1.505,2.429,2.429,0,0,0-1.812-.432,2.273,2.273,0,0,0-1.525,1.071L61.5,39.884Z"/>
      <path class="cls-1" d="M74,34.969l-1.68-2.036.293-.242a.7.7,0,0,0,.234-.873L67.994,18.032l2.514-2.074L83.1,23.373a.7.7,0,0,0,.9-.067l.294-.242,1.68,2.037-1.43,1.181a2.327,2.327,0,0,1-1.183.605,2.148,2.148,0,0,1-1.238-.4l-2.685-1.611-4.405,3.632L76.1,31.453a2.219,2.219,0,0,1,.164,1.284,2.272,2.272,0,0,1-.809,1.038Zm-.057-8.895,3.3-2.723-3.813-2.345-2.119-1.521-.037.031q.74,1.454,1.091,2.369Z"/>
      <path class="cls-1" d="M87.455,24.215l-.987-2.45.354-.142a.7.7,0,0,0,.489-.76l-.472-14.61,3.023-1.218L99.624,15.9a.7.7,0,0,0,.879.21l.353-.142.987,2.448-1.722.7a2.328,2.328,0,0,1-1.31.217,2.157,2.157,0,0,1-1.06-.752l-2.074-2.346-5.3,2.132.131,3.13a2.2,2.2,0,0,1-.232,1.272,2.255,2.255,0,0,1-1.083.744Zm2.629-8.5,3.973-1.6L91.128,10.73,89.569,8.641l-.044.018q.264,1.613.325,2.588Z"/>
      <path class="cls-1" d="M105.691,17.9,104.511,4.226a.464.464,0,0,0-.567-.476l-1.019.089L102.7,1.207l3.034-.263A1.675,1.675,0,0,1,107,1.229a1.71,1.71,0,0,1,.484,1.188l.451,5.239,1.187-.1q1.041-.09,1.3-.662l2.845-6.6L116.682,0l-3.194,7.248a4.833,4.833,0,0,1-.435.778,2.363,2.363,0,0,1-.369.436l-.158.109,0,.049q.582.092,1.19,1.066l2.5,4.107c.2.346.615.5,1.231.441l.45-.039.228,2.631-1.778.153a3.462,3.462,0,0,1-1.491-.11,2.227,2.227,0,0,1-.965-.943l-3.226-5.285a.853.853,0,0,0-.562-.43,3.74,3.74,0,0,0-.956-.014l-1,.087.635,7.348Z"/>
      <path class="cls-1" d="M122.285,15.824l2.418-12.4-1.518-.3.506-2.592L133.71,2.491a1.431,1.431,0,0,1,1.278,1.9L134.5,6.912l-2.778-.543.195-1a.463.463,0,0,0-.413-.615l-3.737-.729-.846,4.343,5.371,1.049L131.781,12l-5.371-1.047-.769,3.946a.462.462,0,0,0,.414.613l3.828.748a.463.463,0,0,0,.615-.414l.2-1,2.779.543-.492,2.522a1.666,1.666,0,0,1-.622,1.139,1.7,1.7,0,0,1-1.276.139l-7.519-1.466a1.693,1.693,0,0,1-1.141-.611A1.7,1.7,0,0,1,122.285,15.824Z"/>
      <path class="cls-1" d="M135.127,20.07l1.263-2.319.9.49a.464.464,0,0,0,.71-.209l6.566-12.056,2.464,1.343,1.149,11.271q.046.514.075,1.205c.019.463.023.835.014,1.119l.005.436.043.023a21.1,21.1,0,0,1,.991-2.168l3.7-6.789a1.7,1.7,0,0,1,.921-.9,1.663,1.663,0,0,1,1.274.247l2.674,1.457-1.264,2.318-.9-.489a.462.462,0,0,0-.709.21l-6.567,12.055-2.443-1.332-1.181-11.262c-.03-.343-.056-.744-.076-1.206s-.023-.834-.013-1.119l-.007-.435-.041-.023a21.132,21.132,0,0,1-.991,2.17L140,20.88a1.382,1.382,0,0,1-2.194.645Z"/>
      <path class="cls-1" d="M153.477,28.437l2.8-.271c0,.069-.005.165-.011.3a5.768,5.768,0,0,0,.043.741,7.062,7.062,0,0,0,.179,1.053,5.7,5.7,0,0,0,.442,1.133,4.306,4.306,0,0,0,.777,1.1,2.766,2.766,0,0,0,1.587.861,1.744,1.744,0,0,0,1.538-.52,1.549,1.549,0,0,0,.449-1.055,4.072,4.072,0,0,0-.185-1.415q-.227-.76-.553-1.623a18.033,18.033,0,0,1-.575-1.8,11.43,11.43,0,0,1-.339-1.828,4.259,4.259,0,0,1,1.3-3.485,4.281,4.281,0,0,1,3.546-1.236,6.016,6.016,0,0,1,3.8,1.946,8.008,8.008,0,0,1,1.309,1.782,4.808,4.808,0,0,1,.58,2.176,2.509,2.509,0,0,1-.763,1.96l-1.124,1.1-1.96-2.01.544-.53a1.082,1.082,0,0,0,.2-1.142,3.219,3.219,0,0,0-.825-1.372,2.983,2.983,0,0,0-1.6-.92,1.539,1.539,0,0,0-1.425.411,1.47,1.47,0,0,0-.435,1.04,3.99,3.99,0,0,0,.219,1.381c.163.5.355,1.029.58,1.6s.422,1.163.6,1.776a10.237,10.237,0,0,1,.357,1.813,4.184,4.184,0,0,1-.248,1.839,4.547,4.547,0,0,1-1.141,1.727,4.666,4.666,0,0,1-3.591,1.379,5.707,5.707,0,0,1-3.888-1.921,7.571,7.571,0,0,1-1.226-1.647,6.941,6.941,0,0,1-.678-1.63,10.993,10.993,0,0,1-.261-1.359,5.655,5.655,0,0,1-.057-.976Z"/>
    </g>
    <g>
      <path class="cls-1" d="M65.247,134.264,73.3,122.509l-1.276-.874,1.5-2.177,7.947,5.448a1.682,1.682,0,0,1,.8,1.024,1.715,1.715,0,0,1-.379,1.225l-1.455,2.12-2.314-1.586.578-.847a.461.461,0,0,0-.135-.727l-2.689-1.844-2.7,3.945,4.455,3.055-1.5,2.179L71.68,130.4l-3.863,5.631Z"/>
      <path class="cls-1" d="M81.51,143.839l4.7-13.451-1.459-.512.872-2.491,7.141,2.5a5.339,5.339,0,0,1,3.143,2.547,4.873,4.873,0,0,1,.14,3.994,5.436,5.436,0,0,1-.958,1.733,3.921,3.921,0,0,1-1.229,1.03,5.2,5.2,0,0,1-1.121.428,2.437,2.437,0,0,1-.81.083l-.015.044a1.767,1.767,0,0,1,.5,1.085l.474,3.618c.06.406.374.712.945.909l.29.1-.872,2.491-1.549-.539a3.49,3.49,0,0,1-1.3-.707,2.2,2.2,0,0,1-.5-1.262l-.638-4.734a1.418,1.418,0,0,0-.343-.787,2.4,2.4,0,0,0-.9-.479l-1.482-.521-2.081,5.955Zm5.9-7.437,2.336.816a2.387,2.387,0,0,0,1.971-.054,2.764,2.764,0,0,0,1.266-1.639A2.691,2.691,0,0,0,93,133.492a2.36,2.36,0,0,0-1.469-1.244l-2.379-.833Z"/>
      <path class="cls-1" d="M100.113,149.021l.291-2.624,1.679.186,1.282-11.538-1.677-.186.291-2.627,6.289.7-.291,2.626-1.679-.188-1.283,11.54,1.679.188-.291,2.622Z"/>
      <path class="cls-1" d="M115.589,148.38l-1.683-12.523-1.533.208-.353-2.617,6.814-.917a8.7,8.7,0,0,1,6.523,1.379,8.177,8.177,0,0,1,3.136,5.819,8.26,8.26,0,0,1-1.484,6.468,8.648,8.648,0,0,1-5.923,3.075l-3.679.5a1.382,1.382,0,0,1-1.82-1.388Zm2.883-1.947a.464.464,0,0,0,.589.449l1.51-.2a5.414,5.414,0,0,0,3.817-2.04,5.894,5.894,0,0,0,.9-4.475,5.794,5.794,0,0,0-2.057-4.033,5.43,5.43,0,0,0-4.209-.958l-2.028.271Z"/>
      <path class="cls-1" d="M137.025,145.942l-1.119-2.392.345-.163a.7.7,0,0,0,.445-.787l-1.275-14.561,2.953-1.38,10.344,10.314a.7.7,0,0,0,.891.162l.345-.162,1.121,2.392-1.681.786a2.338,2.338,0,0,1-1.294.293,2.168,2.168,0,0,1-1.1-.694l-2.2-2.227-5.171,2.419.3,3.116a2.221,2.221,0,0,1-.161,1.285,2.279,2.279,0,0,1-1.042.8Zm2.16-8.632,3.879-1.814-3.11-3.221-1.672-2-.043.021q.351,1.594.466,2.565Z"/>
      <path class="cls-1" d="M159.492,133.062l-4.726-5.663-7.11-2.278a1.547,1.547,0,0,0-.617-.09,1.141,1.141,0,0,0-.5.277l-.42.35-1.692-2.027,1.222-1.021a2.868,2.868,0,0,1,1.158-.657,2.6,2.6,0,0,1,1.335.188l4.1,1.416,2,.806.038-.031c-.167-.645-.311-1.35-.435-2.117l-.68-4.266a2.57,2.57,0,0,1,.054-1.346,2.863,2.863,0,0,1,.851-1.022l1.225-1.021,1.691,2.027-.419.351a1.122,1.122,0,0,0-.361.439,1.56,1.56,0,0,0-.022.623l.972,7.4,4.726,5.661Z"/>
    </g>
  </g>
</svg>
