<svg id="Layer_1" data-name="Layer 1" xmlns="http://www.w3.org/2000/svg" viewBox="0 0 539 455.899">
  <defs>
    <style>
      .cls-1 {
        fill: #fff;
      }
    </style>
  </defs>
  <title>40b4ffa3-0e91-4caf-afaa-ccfd0fe17dbe</title>
  <path class="cls-1" d="M539,216v24c-1.33,7.617-2.782,15.216-3.967,22.855a184.268,184.268,0,0,1-14.506,48.013c-14.285,31.492-35.118,58.013-61.322,80.53a271.233,271.233,0,0,1-55.081,36.423,286.159,286.159,0,0,1-56.706,20.963c-5.249,1.369-10.6,2.36-16.052,3.557V263.007c19.677,0,38.994-.106,58.308.084,4.154.041,5.464-1.194,5.416-5.389-.2-17.662-.085-35.328-.087-52.993,0-6.675-.005-6.7-6.607-6.7-17.831-.014-35.663-.082-53.493.059-3.618.029-5.2-.974-4.945-4.8.493-7.249-.074-14.659,1.205-21.748,2.926-16.215,11.41-28.463,27.934-33.409,14.821-4.436,29.764-2.972,44.592.275,5.536,1.212,6.169.776,6.342-5.037.25-8.436.626-16.87,1.061-25.3.578-11.206,1.345-22.4,1.78-33.614.043-1.1-1.531-3.13-2.571-3.286-12.458-1.873-24.921-4.4-37.456-4.887-12.819-.5-25.754.678-38.576,1.817a127.455,127.455,0,0,0-52.62,17c-22.719,13.059-37.833,32.366-46.706,56.826-5.832,16.077-8.061,32.711-7.95,49.729.014,2.076,0,4.153,0,6.373-12.98,0-25.145.138-37.3-.079-3.964-.071-5.281,1.879-5.671,5.212a25.9,25.9,0,0,0-.025,3c0,16.2-.051,32.4.049,48.6.017,2.692.687,5.379,1.119,8.533h41.4V455.9c-9.232-1.729-18.131-2.991-26.825-5.1-27.044-6.556-53.024-15.994-77.209-29.95-25.045-14.452-47.877-31.6-66.948-53.624a233.7,233.7,0,0,1-35.655-54.281A196.4,196.4,0,0,1,2.912,253.007C2.5,249.605,1,246.335,0,243q0-13.5,0-27c.667-1.01,1.725-1.945,1.937-3.043,1.45-7.518,2.816-15.055,4.035-22.614,3.765-23.338,12.336-44.989,24.518-65.006A238.674,238.674,0,0,1,85.311,63.077c25.332-20.361,53.449-35.386,84.011-46.218A299.641,299.641,0,0,1,257.079.261a311.707,311.707,0,0,1,50.533,2.09A334.042,334.042,0,0,1,355.4,12.206c23.662,6.474,46.342,15.816,67.11,29.017,12.24,7.781,23.805,16.65,35.464,25.312,13.18,9.793,23.942,22.021,34.111,34.82a220.274,220.274,0,0,1,31.068,53.114,184.367,184.367,0,0,1,11.885,41.179C536.145,202.468,537.667,209.22,539,216Z"/>
</svg>
