<svg id="Layer_1" data-name="Layer 1" xmlns="http://www.w3.org/2000/svg" viewBox="0 0 219.328 221.135">
  <defs>
    <style>
      .cls-1 {
        fill: #fff;
      }

      .cls-2 {
        fill: none;
      }
    </style>
  </defs>
  <title>5bcaf522-8ae6-4cea-9ccc-fa1a488fd522</title>
  <g>
    <path class="cls-1" d="M.151,110.718c0-15.33-.409-30.675.12-45.987C.755,50.717,3.74,37.238,12.241,25.5,21.472,12.746,34.2,5.349,49.23,2.331,57.876.6,66.907.311,75.773.223c25.993-.259,51.993-.335,77.983.006a72.472,72.472,0,0,1,38.916,11.618c12.651,8.116,19.928,19.824,23.269,33.869a124.665,124.665,0,0,1,3.078,26.812c.39,26.156.439,52.327-.025,78.48a106.187,106.187,0,0,1-3.611,27.18c-7.022,24.447-26.627,40.81-52.836,41.745q-50.344,1.8-100.769.943c-16.576-.263-32.374-5.229-44.293-17.989C7.7,192.414,1.756,179.852,1.293,165.5.7,147.259,1.15,128.983,1.15,110.721ZM109.1,20.138c-8.662,0-17.326-.13-25.984.036-8.763.168-17.6.022-26.264,1.092C39.63,23.391,29.4,30.542,23.031,46.773c-4.578,11.66-2.844,23.807-3.554,35.647-1.174,19.585-.52,39.294-.228,58.945a185.1,185.1,0,0,0,2.044,26.552c2.7,16.808,12.122,26.758,28.63,31.058a100.225,100.225,0,0,0,24.786,3c27.085.067,54.175-.322,81.256-.906,25.666-.554,41.125-15.513,43.085-40.673.912-11.716,1.194-23.522,1.011-35.275C199.7,102.1,199.192,79.066,198,56.074,197.39,44.435,191.582,35,181.943,28.067c-8.524-6.131-18.447-7.451-28.371-7.8C138.765,19.758,123.927,20.138,109.1,20.138Z"/>
    <path class="cls-2" d="M109.1,20.138c14.825,0,29.662-.38,44.469.133,9.924.344,19.847,1.665,28.371,7.8C191.582,35,197.39,44.435,198,56.074c1.2,22.992,1.706,46.027,2.064,69.051.183,11.753-.1,23.559-1.011,35.275-1.959,25.16-17.418,40.12-43.085,40.673-27.08.584-54.171.973-81.256.906a100.225,100.225,0,0,1-24.786-3c-16.508-4.3-25.929-14.25-28.63-31.058a185.1,185.1,0,0,1-2.044-26.552c-.292-19.651-.946-39.36.228-58.945.71-11.84-1.024-23.987,3.554-35.647C29.4,30.542,39.63,23.391,56.854,21.266c8.669-1.069,17.5-.923,26.264-1.092C91.777,20.008,100.441,20.138,109.1,20.138Zm-55.952,90.9c-1.444,30.368,25.808,56.529,54.405,57.141,33.192.711,57.824-25.855,58.608-55,.919-34.168-25.051-57.566-53.009-59.261C78.135,51.8,51.624,80.824,53.151,111.042ZM181.158,52.013c.745-7.589-5.4-13.961-13.7-13.877-7.6.077-13.092,5.975-13.35,13.832-.264,8.054,6.143,13.538,13.956,14.068C175.579,66.546,181.167,60.237,181.158,52.013Z"/>
    <path class="cls-1" d="M53.151,111.042c-1.526-30.218,24.984-59.247,60-57.124,27.958,1.695,53.928,25.093,53.009,59.261-.784,29.15-25.416,55.715-58.608,55C78.959,167.571,51.706,141.41,53.151,111.042Zm93-.568C147,89.735,129.6,73.356,109.875,73.2A37.052,37.052,0,0,0,72.35,110.646c.078,21.14,14.692,36.8,37.116,37.52C128.87,148.788,148.115,130.915,146.151,110.474Z"/>
    <path class="cls-1" d="M181.158,52.013c.008,8.224-5.58,14.533-13.1,14.023-7.812-.531-14.22-6.015-13.956-14.068.258-7.857,5.746-13.755,13.35-13.832C175.757,38.052,181.9,44.424,181.158,52.013Z"/>
    <path class="cls-2" d="M146.151,110.474c1.964,20.441-17.281,38.313-36.685,37.692-22.424-.718-37.038-16.38-37.116-37.52A37.052,37.052,0,0,1,109.875,73.2C129.6,73.356,147,89.735,146.151,110.474Z"/>
  </g>
</svg>
