<svg id="Layer_1" data-name="Layer 1" xmlns="http://www.w3.org/2000/svg" xmlns:xlink="http://www.w3.org/1999/xlink" viewBox="0 0 70.976 71.89">
  <defs>
    <style>
      .cls-1 {
        fill: none;
      }

      .cls-2 {
        clip-path: url(#clip-path);
      }

      .cls-3 {
        fill: #fff;
      }
    </style>
    <clipPath id="clip-path" transform="translate(0 0)">
      <rect class="cls-1" width="70.975" height="71.89"/>
    </clipPath>
  </defs>
  <title>226bc102-6270-4ab9-8381-3650f9342730</title>
  <g id="snapchat">
    <g class="cls-2">
      <g class="cls-2">
        <path class="cls-3" d="M15.391,27.828c-.04-.823-.079-1.628-.116-2.432a56.438,56.438,0,0,1,.089-7.985,17.725,17.725,0,0,1,.368-2.38,14.646,14.646,0,0,1,.756-2.394,28.369,28.369,0,0,1,1.463-2.912,15.912,15.912,0,0,1,1.468-2.153,26.531,26.531,0,0,1,2.218-2.428A16.961,16.961,0,0,1,25.2,2.551,19.76,19.76,0,0,1,32.1.243a25.456,25.456,0,0,1,6.187-.1A19.348,19.348,0,0,1,42.9,1.235a17.252,17.252,0,0,1,3.863,1.926c.728.5,1.435,1.041,2.132,1.6a13.383,13.383,0,0,1,2.278,2.347c.5.656.983,1.329,1.456,2.011a14.814,14.814,0,0,1,1.53,2.826q.394.962.756,1.941a17.668,17.668,0,0,1,.749,4.154,48.635,48.635,0,0,1,.081,7.312c-.023.684-.1,1.365-.147,2.049-.006.087,0,.176,0,.328.19-.074.357-.125.514-.2a5.575,5.575,0,0,1,2.908-.684A5.83,5.83,0,0,1,62.2,28.032a5.062,5.062,0,0,1,1.6,2.022,4.475,4.475,0,0,1,.1,3.53,5.529,5.529,0,0,1-1.921,2.5A12.423,12.423,0,0,1,58.642,37.8c-.749.273-1.485.6-2.227.9a.222.222,0,0,0-.022.013c-.43.244-.477.344-.262.841.3.7.6,1.4.966,2.054.452.811.942,1.6,1.463,2.346A15.829,15.829,0,0,0,60.027,45.8a23.087,23.087,0,0,0,2.237,2.134,12.728,12.728,0,0,0,5.717,2.692,3.431,3.431,0,0,1,2.136,1.25,4.137,4.137,0,0,1,.446,4.345A5.612,5.612,0,0,1,68.21,58.7a16.044,16.044,0,0,1-4.169,1.643c-.758.2-1.526.358-2.291.516-.171.035-.239.115-.275.309q-.148.787-.331,1.566a4.187,4.187,0,0,1-.913,1.826,3.358,3.358,0,0,1-2.12,1.154,8.9,8.9,0,0,1-2.874-.273,12.117,12.117,0,0,0-5.4.034,6.25,6.25,0,0,0-1.659.787c-.648.4-1.252.9-1.881,1.349-1,.712-1.99,1.467-3.025,2.109a13.924,13.924,0,0,1-7.711,2.166,15.248,15.248,0,0,1-4.253-.546,15.408,15.408,0,0,1-1.81-.677,17.125,17.125,0,0,1-3.205-1.9c-.72-.536-1.439-1.074-2.166-1.6a9.982,9.982,0,0,0-2.772-1.641,8.943,8.943,0,0,0-1.524-.29,13.414,13.414,0,0,0-4.522.321,6.85,6.85,0,0,1-2.321.216,3.438,3.438,0,0,1-2.146-1.094,3.546,3.546,0,0,1-.835-1.5c-.188-.665-.345-1.343-.5-2.018-.04-.17-.092-.262-.256-.3-1.135-.27-2.272-.531-3.4-.843a11.749,11.749,0,0,1-3.334-1.478,6.891,6.891,0,0,1-1.056-.869A4.8,4.8,0,0,1,.085,55.137a3.786,3.786,0,0,1,.107-2,3.418,3.418,0,0,1,2.356-2.384A16.328,16.328,0,0,0,6.272,49.52,17.467,17.467,0,0,0,8.089,48.4,12.8,12.8,0,0,0,10.565,46.2c.483-.566.987-1.111,1.431-1.716.543-.741,1.044-1.526,1.541-2.311a12.317,12.317,0,0,0,.66-1.227c.249-.515.472-1.047.712-1.568.119-.256.063-.442-.156-.544A20.181,20.181,0,0,0,12.888,38a13.777,13.777,0,0,1-3.755-1.826,6.123,6.123,0,0,1-1.374-1.4,5.142,5.142,0,0,1-.959-2.5,4.2,4.2,0,0,1,.8-2.99,5.175,5.175,0,0,1,5.888-2.157c.58.162,1.137.439,1.705.661a1.367,1.367,0,0,0,.194.044m-.637,31.725c.657-.091,1.287-.185,1.917-.265a16.792,16.792,0,0,1,4.988.167,11.708,11.708,0,0,1,4.733,2.181c.7.5,1.378,1.039,2.083,1.527.872.6,1.744,1.213,2.65,1.737a8.5,8.5,0,0,0,1.722.688,10.342,10.342,0,0,0,3.584.286,7.039,7.039,0,0,0,3.195-.852c1.02-.568,2-1.236,2.977-1.9.875-.6,1.709-1.278,2.583-1.881A12.884,12.884,0,0,1,46.8,60.3a10.169,10.169,0,0,1,3.309-.965,18.484,18.484,0,0,1,4.285-.058c.6.067,1.207.166,1.8.249.159-.534.319-1.062.476-1.591a4.021,4.021,0,0,1,1.409-2.111,4.348,4.348,0,0,1,1.993-.72c.612-.115,1.223-.237,1.834-.356a.573.573,0,0,0-.212-.2c-.566-.351-1.153-.665-1.694-1.064a22.047,22.047,0,0,1-2.145-1.737c-.805-.764-1.563-1.6-2.309-2.447A18.8,18.8,0,0,1,54.155,47.5c-.528-.771-1.044-1.558-1.5-2.388a30.133,30.133,0,0,1-1.439-2.929,7.777,7.777,0,0,1-.652-3.908,6.193,6.193,0,0,1,1.329-3.245,1.1,1.1,0,0,1,.119-.106L53.2,33.79a5.2,5.2,0,0,1-1.9-.935,3.092,3.092,0,0,1-1.185-1.748,9.033,9.033,0,0,1-.023-2.44c.081-2.592.215-5.183.242-7.775a32.871,32.871,0,0,0-.267-3.781A8.829,8.829,0,0,0,48.991,14a12.871,12.871,0,0,0-1.556-2.48,24.637,24.637,0,0,0-1.717-1.885,11.983,11.983,0,0,0-2.872-1.987,15.152,15.152,0,0,0-3.3-1.226,17.068,17.068,0,0,0-4.572-.416,16.55,16.55,0,0,0-4.495.689,14.12,14.12,0,0,0-4.4,2.24,13.049,13.049,0,0,0-2.972,3.157A18.094,18.094,0,0,0,21.7,14.584a11.783,11.783,0,0,0-1,4.364,74.51,74.51,0,0,0,.113,8.375c.055,1.065.111,2.131.125,3.2a2.619,2.619,0,0,1-.593,1.706A4.24,4.24,0,0,1,18.6,33.5c-.27.105-.541.205-.815.309.361.316.738.6,1.068.946a5.954,5.954,0,0,1,1.493,2.846,5.63,5.63,0,0,1-.119,3.133c-.257.729-.514,1.461-.8,2.173a16.4,16.4,0,0,1-1.483,2.826c-.5.76-.985,1.532-1.512,2.264-.451.626-.947,1.208-1.431,1.8a16.74,16.74,0,0,1-2.3,2.321c-.621.514-1.25,1.014-1.889,1.5-.318.239-.667.423-1,.633l-.794.492c.879.169,1.687.331,2.5.48a3.344,3.344,0,0,1,2.3,1.579,6.163,6.163,0,0,1,.79,2.013c.051.24.1.481.158.737" transform="translate(0 0)"/>
      </g>
    </g>
  </g>
</svg>
